# xmcd
#
# Track frame offsets:
# 150
# 16447
# 31165
# 44487
# 62050
# 75635
# 91140
# 103897
# 123347
# 137987
# 156612
# 170600
# 184890
# 200937
#
# Disc length: 2904 seconds
#
#
# Revision: 0
# Processed by: cddbd v1.5.2PL0 Copyright (c) Steve Scherf et al.
# Submitted via: FreeRIP 2.96 
#
DISCID=cb0b560e
DTITLE=Diversos - Sertão Caipira Universitário Vol. 1
DYEAR=2007
DGENRE=Country
TTITLE0=Tiozinho
TTITLE1=Amor Perfeito
TTITLE2=Mulher Boa
TTITLE3=Porque não vê
TTITLE4=Martelo de unha
TTITLE5=Foto 3x4
TTITLE6=Cada buraco um susto
TTITLE7=Promessa
TTITLE8=Beijo tá na moda
TTITLE9=Risca faca
TTITLE10=Sonhando com você
TTITLE11=A turma da latinha
TTITLE12=Pára tudo
TTITLE13=Jogo do laço
EXTD=
EXTT0=
EXTT1=
EXTT2=
EXTT3=
EXTT4=
EXTT5=
EXTT6=
EXTT7=
EXTT8=
EXTT9=
EXTT10=
EXTT11=
EXTT12=
EXTT13=
PLAYORDER=
